<svg width="24" height="24" viewBox="0 0 24 24" fill="none" xmlns="http://www.w3.org/2000/svg">
<rect width="24" height="24" rx="12" fill="#0055FF"/>
<path d="M11.3 17.2748C11.1 17.0748 11.004 16.8331 11.012 16.5498C11.0207 16.2665 11.125 16.0248 11.325 15.8248L14.15 12.9998H6C5.71667 12.9998 5.479 12.9038 5.287 12.7118C5.09567 12.5205 5 12.2831 5 11.9998C5 11.7165 5.09567 11.4788 5.287 11.2868C5.479 11.0955 5.71667 10.9998 6 10.9998H14.15L11.3 8.1498C11.1 7.9498 11 7.71214 11 7.4368C11 7.16214 11.1 6.9248 11.3 6.7248C11.5 6.5248 11.7377 6.4248 12.013 6.4248C12.2877 6.4248 12.525 6.5248 12.725 6.7248L17.3 11.2998C17.4 11.3998 17.471 11.5081 17.513 11.6248C17.5543 11.7415 17.575 11.8665 17.575 11.9998C17.575 12.1331 17.5543 12.2581 17.513 12.3748C17.471 12.4915 17.4 12.5998 17.3 12.6998L12.7 17.2998C12.5167 17.4831 12.2877 17.5748 12.013 17.5748C11.7377 17.5748 11.5 17.4748 11.3 17.2748Z" fill="white"/>
</svg>
